<?xml version="1.0" standalone="no"?>
<svg xmlns:xlink="http://www.w3.org/1999/xlink" id="wave" style="transform:rotate(180deg); transition: 0.3s" viewBox="0 0 1440 100" version="1.1" xmlns="http://www.w3.org/2000/svg"><defs><linearGradient id="sw-gradient-0" x1="0" x2="0" y1="1" y2="0"><stop stop-color="rgba(255, 249, 234, 1)" offset="0%"/><stop stop-color="rgba(255, 249, 234, 1)" offset="100%"/></linearGradient></defs><path style="transform:translate(0, 0px); opacity:1" fill="url(#sw-gradient-0)" d="M0,10L60,18.3C120,27,240,43,360,45C480,47,600,33,720,38.3C840,43,960,67,1080,75C1200,83,1320,77,1440,70C1560,63,1680,57,1800,50C1920,43,2040,37,2160,40C2280,43,2400,57,2520,58.3C2640,60,2760,50,2880,41.7C3000,33,3120,27,3240,35C3360,43,3480,67,3600,78.3C3720,90,3840,90,3960,83.3C4080,77,4200,63,4320,60C4440,57,4560,63,4680,55C4800,47,4920,23,5040,25C5160,27,5280,53,5400,63.3C5520,73,5640,67,5760,61.7C5880,57,6000,53,6120,45C6240,37,6360,23,6480,30C6600,37,6720,63,6840,66.7C6960,70,7080,50,7200,35C7320,20,7440,10,7560,8.3C7680,7,7800,13,7920,23.3C8040,33,8160,47,8280,46.7C8400,47,8520,33,8580,26.7L8640,20L8640,100L8580,100C8520,100,8400,100,8280,100C8160,100,8040,100,7920,100C7800,100,7680,100,7560,100C7440,100,7320,100,7200,100C7080,100,6960,100,6840,100C6720,100,6600,100,6480,100C6360,100,6240,100,6120,100C6000,100,5880,100,5760,100C5640,100,5520,100,5400,100C5280,100,5160,100,5040,100C4920,100,4800,100,4680,100C4560,100,4440,100,4320,100C4200,100,4080,100,3960,100C3840,100,3720,100,3600,100C3480,100,3360,100,3240,100C3120,100,3000,100,2880,100C2760,100,2640,100,2520,100C2400,100,2280,100,2160,100C2040,100,1920,100,1800,100C1680,100,1560,100,1440,100C1320,100,1200,100,1080,100C960,100,840,100,720,100C600,100,480,100,360,100C240,100,120,100,60,100L0,100Z"/></svg>